<svg xmlns="http://www.w3.org/2000/svg" xmlns:xlink="http://www.w3.org/1999/xlink" version="1.1" width="256" height="256" viewBox="0 0 256 256" xml:space="preserve">
<g style="stroke: none; stroke-width: 0; stroke-dasharray: none; stroke-linecap: butt; stroke-linejoin: miter; stroke-miterlimit: 10; fill: none; fill-rule: nonzero; opacity: 1;" transform="translate(1.4065934065934016 1.4065934065934016) scale(2.81 2.81)">
	<path d="M 13.74 65.903 c -3.403 0 -6.172 -2.77 -6.172 -6.173 V 35.796 c 0 -3.403 2.769 -6.172 6.172 -6.172 s 6.172 2.769 6.172 6.172 V 59.73 C 19.912 63.134 17.144 65.903 13.74 65.903 z M 13.74 31.625 c -2.301 0 -4.172 1.872 -4.172 4.172 V 59.73 c 0 2.301 1.872 4.173 4.172 4.173 c 2.3 0 4.172 -1.872 4.172 -4.173 V 35.796 C 17.912 33.496 16.041 31.625 13.74 31.625 z" style="stroke: none; stroke-width: 1; stroke-dasharray: none; stroke-linecap: butt; stroke-linejoin: miter; stroke-miterlimit: 10; fill: rgb(0,0,0); fill-rule: nonzero; opacity: 1;" transform=" matrix(1 0 0 1 0 0) " stroke-linecap="round"/>
	<path d="M 76.26 65.903 c -3.403 0 -6.172 -2.77 -6.172 -6.173 V 35.796 c 0 -3.403 2.769 -6.172 6.172 -6.172 s 6.172 2.769 6.172 6.172 V 59.73 C 82.432 63.134 79.663 65.903 76.26 65.903 z M 76.26 31.625 c -2.301 0 -4.172 1.872 -4.172 4.172 V 59.73 c 0 2.301 1.871 4.173 4.172 4.173 s 4.172 -1.872 4.172 -4.173 V 35.796 C 80.432 33.496 78.561 31.625 76.26 31.625 z" style="stroke: none; stroke-width: 1; stroke-dasharray: none; stroke-linecap: butt; stroke-linejoin: miter; stroke-miterlimit: 10; fill: rgb(0,0,0); fill-rule: nonzero; opacity: 1;" transform=" matrix(1 0 0 1 0 0) " stroke-linecap="round"/>
	<path d="M 53.737 90 c -3.403 0 -6.172 -2.769 -6.172 -6.172 V 71.177 h -5.13 v 12.651 c 0 3.403 -2.769 6.172 -6.172 6.172 s -6.172 -2.769 -6.172 -6.172 V 70.986 c -4.559 -0.9 -7.895 -4.894 -7.895 -9.633 V 32.551 c 0 -1.614 1.313 -2.927 2.927 -2.927 h 39.755 c 1.614 0 2.927 1.313 2.927 2.927 v 28.802 c 0 4.739 -3.336 8.732 -7.896 9.633 v 12.842 C 59.909 87.231 57.141 90 53.737 90 z M 40.435 69.177 h 9.13 v 14.651 c 0 2.301 1.871 4.172 4.172 4.172 s 4.172 -1.871 4.172 -4.172 V 69.226 l 0.896 -0.093 c 3.99 -0.418 6.999 -3.762 6.999 -7.779 V 32.551 c 0 -0.511 -0.416 -0.927 -0.927 -0.927 H 25.123 c -0.511 0 -0.927 0.416 -0.927 0.927 v 28.802 c 0 4.018 3.009 7.361 6.999 7.779 l 0.896 0.093 v 14.603 c 0 2.301 1.872 4.172 4.172 4.172 s 4.172 -1.871 4.172 -4.172 V 69.177 z" style="stroke: none; stroke-width: 1; stroke-dasharray: none; stroke-linecap: butt; stroke-linejoin: miter; stroke-miterlimit: 10; fill: rgb(0,0,0); fill-rule: nonzero; opacity: 1;" transform=" matrix(1 0 0 1 0 0) " stroke-linecap="round"/>
	<path d="M 55.029 8.99 c -0.169 0 -0.34 -0.042 -0.497 -0.133 c -0.479 -0.274 -0.645 -0.886 -0.369 -1.365 l 4.01 -6.989 c 0.274 -0.479 0.884 -0.646 1.365 -0.37 c 0.479 0.274 0.645 0.886 0.369 1.365 l -4.01 6.989 C 55.713 8.81 55.376 8.99 55.029 8.99 z" style="stroke: none; stroke-width: 1; stroke-dasharray: none; stroke-linecap: butt; stroke-linejoin: miter; stroke-miterlimit: 10; fill: rgb(0,0,0); fill-rule: nonzero; opacity: 1;" transform=" matrix(1 0 0 1 0 0) " stroke-linecap="round"/>
	<path d="M 34.971 8.989 c -0.347 0 -0.684 -0.18 -0.868 -0.502 l -4.01 -6.989 c -0.275 -0.479 -0.109 -1.09 0.37 -1.365 c 0.479 -0.275 1.09 -0.109 1.365 0.37 l 4.01 6.989 c 0.275 0.479 0.109 1.09 -0.37 1.365 C 35.311 8.947 35.14 8.989 34.971 8.989 z" style="stroke: none; stroke-width: 1; stroke-dasharray: none; stroke-linecap: butt; stroke-linejoin: miter; stroke-miterlimit: 10; fill: rgb(0,0,0); fill-rule: nonzero; opacity: 1;" transform=" matrix(1 0 0 1 0 0) " stroke-linecap="round"/>
	<path d="M 63.938 26.47 H 26.061 c -1.06 0 -2.049 -0.475 -2.714 -1.304 c -0.656 -0.818 -0.902 -1.87 -0.676 -2.886 c 1.41 -6.34 5.479 -11.749 11.164 -14.841 l 1.384 -0.692 c 3.069 -1.4 6.349 -2.103 9.781 -2.103 c 3.435 0 6.715 0.702 9.749 2.087 l 1.416 0.708 c 5.685 3.091 9.754 8.501 11.165 14.841 c 0.226 1.016 -0.021 2.068 -0.677 2.886 C 65.988 25.995 64.999 26.47 63.938 26.47 z M 45 6.645 c -3.144 0 -6.145 0.642 -8.918 1.907 L 34.76 9.212 c -5.146 2.8 -8.852 7.727 -10.137 13.502 c -0.094 0.421 0.01 0.858 0.284 1.2 c 0.283 0.353 0.703 0.555 1.153 0.555 h 37.877 c 0.45 0 0.871 -0.203 1.154 -0.555 c 0.273 -0.342 0.377 -0.779 0.283 -1.2 c -1.284 -5.771 -4.984 -10.694 -10.152 -13.51 l -1.338 -0.668 C 51.146 7.286 48.146 6.645 45 6.645 z" style="stroke: none; stroke-width: 1; stroke-dasharray: none; stroke-linecap: butt; stroke-linejoin: miter; stroke-miterlimit: 10; fill: rgb(0,0,0); fill-rule: nonzero; opacity: 1;" transform=" matrix(1 0 0 1 0 0) " stroke-linecap="round"/>
	<path d="M 55.036 19.256 c -1.003 0 -1.816 -0.813 -1.816 -1.816 c 0 -1.003 0.813 -1.816 1.816 -1.816 s 1.816 0.813 1.816 1.816 C 56.85 18.442 56.038 19.255 55.036 19.256" style="stroke: none; stroke-width: 1; stroke-dasharray: none; stroke-linecap: butt; stroke-linejoin: miter; stroke-miterlimit: 10; fill: rgb(0,0,0); fill-rule: nonzero; opacity: 1;" transform=" matrix(1 0 0 1 0 0) " stroke-linecap="round"/>
	<path d="M 34.964 19.256 c -1.003 0 -1.816 -0.813 -1.816 -1.816 c 0 -1.003 0.813 -1.816 1.816 -1.816 s 1.816 0.813 1.816 1.816 C 36.779 18.442 35.967 19.255 34.964 19.256" style="stroke: none; stroke-width: 1; stroke-dasharray: none; stroke-linecap: butt; stroke-linejoin: miter; stroke-miterlimit: 10; fill: rgb(0,0,0); fill-rule: nonzero; opacity: 1;" transform=" matrix(1 0 0 1 0 0) " stroke-linecap="round"/>
</g>
</svg>